<svg width="25" height="24" viewBox="0 0 25 24" fill="none" xmlns="http://www.w3.org/2000/svg">
<path d="M12.5 2.09998C13.0909 2.09998 13.6761 2.21637 14.222 2.44252C14.768 2.66866 15.2641 3.00013 15.6819 3.418C16.0998 3.83586 16.4313 4.33193 16.6574 4.8779C16.8836 5.42387 17 6.00903 17 6.59998V10.2C17 11.3934 16.5259 12.538 15.6819 13.382C14.838 14.2259 13.6934 14.7 12.5 14.7C11.3065 14.7 10.1619 14.2259 9.31798 13.382C8.47407 12.538 7.99996 11.3934 7.99996 10.2V6.59998C7.99996 5.4065 8.47407 4.26191 9.31798 3.418C10.1619 2.57408 11.3065 2.09998 12.5 2.09998ZM4.44946 11.1H6.26296C6.48103 12.5983 7.23125 13.968 8.37637 14.9585C9.5215 15.949 10.985 16.4942 12.4991 16.4942C14.0132 16.4942 15.4766 15.949 16.6218 14.9585C17.7669 13.968 18.5171 12.5983 18.7352 11.1H20.5496C20.3449 12.9258 19.5259 14.6279 18.2269 15.9272C16.9278 17.2264 15.2258 18.0456 13.4 18.2505V21.9H11.6V18.2505C9.77398 18.0458 8.07177 17.2267 6.77252 15.9274C5.47327 14.6282 4.65413 12.926 4.44946 11.1Z" fill="white"/>
</svg>
