<svg width="20" height="20" viewBox="0 0 20 20" fill="none" xmlns="http://www.w3.org/2000/svg">
<path d="M13.9824 15.2551C13.033 15.7924 11.9843 16.1311 10.8999 16.2505V19.9H9.09991V16.2505C7.27394 16.0458 5.57172 15.2267 4.27247 13.9274C2.97322 12.6282 2.15408 10.926 1.94941 9.09997H3.76291C3.90322 10.0714 4.26852 10.9967 4.8297 11.802C5.39087 12.6073 6.13241 13.2704 6.99519 13.7385C7.85798 14.2065 8.81817 14.4665 9.79922 14.4978C10.7803 14.529 11.7551 14.3307 12.6459 13.9186L11.25 12.5236C10.5797 12.7174 9.87346 12.7527 9.18715 12.6267C8.50083 12.5007 7.85322 12.2167 7.2955 11.7974C6.73778 11.378 6.28523 10.8347 5.9736 10.2104C5.66197 9.58603 5.4998 8.89777 5.49991 8.19998V6.77257L0.453613 1.72718L1.72711 0.453675L19.5462 18.2737L18.2727 19.5463L13.9824 15.2551ZM16.6374 12.844L15.3387 11.5462C15.7968 10.8172 16.1091 9.98917 16.236 9.09997H18.0504C17.9019 10.447 17.4159 11.7347 16.6374 12.844ZM14.0184 10.2259L6.11641 2.32388C6.61581 1.47079 7.38222 0.805873 8.29725 0.431848C9.21227 0.0578227 10.225 -0.00450198 11.179 0.254502C12.133 0.513505 12.9751 1.07942 13.5753 1.86484C14.1756 2.65025 14.5005 3.61146 14.4999 4.59998L14.5008 8.19998C14.5019 8.90364 14.3372 9.59766 14.0202 10.2259H14.0184Z" fill="#FF6259"/>
</svg>
