<svg width="28" height="16" viewBox="0 0 28 16" fill="none" xmlns="http://www.w3.org/2000/svg">
<path d="M8.35904 4.36569H9.81279V11.6344H8.35904V4.36569ZM5.45155 6.54631H6.90529V9.4538H5.45155V6.54631ZM11.2665 0.731323H12.7203V13.815H11.2665V0.731323ZM14.174 2.18507H15.6278V15.2688H14.174V2.18507ZM17.0815 4.36569H18.5353V11.6344H17.0815V4.36569ZM19.989 6.54631H21.4428V9.4538H19.989V6.54631Z" fill="#222222"/>
<path d="M24.5925 4.36569H23.1388V11.6344H24.5925V4.36569Z" fill="#222222"/>
<path d="M27.5 6.54631H26.0463V9.4538H27.5V6.54631Z" fill="#222222"/>
<path d="M6.90529 6.54631H5.45155V9.4538H6.90529V6.54631Z" fill="#222222"/>
<path d="M1.45375 6.54631H0V9.4538H1.45375V6.54631Z" fill="#222222"/>
<path d="M2.90749 4.36569H4.36124V11.6344H2.90749V4.36569Z" fill="#222222"/>
</svg>
