<svg width="18" height="18" viewBox="0 0 18 18" fill="none" xmlns="http://www.w3.org/2000/svg">
<path d="M9 18C4.0293 18 0 13.9707 0 9C0 4.0293 4.0293 0 9 0C13.9707 0 18 4.0293 18 9C18 13.9707 13.9707 18 9 18ZM9 16.2C10.9096 16.2 12.7409 15.4414 14.0912 14.0912C15.4414 12.7409 16.2 10.9096 16.2 9C16.2 7.09044 15.4414 5.25909 14.0912 3.90883C12.7409 2.55857 10.9096 1.8 9 1.8C7.09044 1.8 5.25909 2.55857 3.90883 3.90883C2.55857 5.25909 1.8 7.09044 1.8 9C1.8 10.9096 2.55857 12.7409 3.90883 14.0912C5.25909 15.4414 7.09044 16.2 9 16.2ZM9 11.7C8.28392 11.7 7.59716 11.4155 7.09081 10.9092C6.58446 10.4028 6.3 9.71608 6.3 9C6.3 8.28392 6.58446 7.59716 7.09081 7.09081C7.59716 6.58446 8.28392 6.3 9 6.3C9.71608 6.3 10.4028 6.58446 10.9092 7.09081C11.4155 7.59716 11.7 8.28392 11.7 9C11.7 9.71608 11.4155 10.4028 10.9092 10.9092C10.4028 11.4155 9.71608 11.7 9 11.7Z" fill="#0E121B"/>
</svg>
